# xmcd
#
# Track frame offsets: 
#        150
#        12030
#        27892
#        44280
#        57665
#        72752
#        84487
#        97312
#        112392
#        127705
#        140732
#        155442
#
# Disc length: 2873 seconds
#
# Revision: 3
# Processed by: cddbd v1.5.2PL0 Copyright (c) Steve Scherf et al.
# Submitted via: ExactAudioCopy v0.90b4
#
DISCID=a50b370c
DTITLE=Bap Kennedy - Domestic Blues
DYEAR=1998
DGENRE=
TTITLE0=Long Time a Comin'
TTITLE1=The Way I Love Her
TTITLE2=Unforgiven
TTITLE3=Domestic Blues
TTITLE4=I've Fallen in Love
TTITLE5=Vampire
TTITLE6=Angel Is the Devil
TTITLE7=The Backroom
TTITLE8=Mostly Water
TTITLE9=The Ghosts of Belfast
TTITLE10=My Money
TTITLE11=The Shankill and the Falls
EXTD=
EXTT0=
EXTT1=
EXTT2=
EXTT3=
EXTT4=
EXTT5=
EXTT6=
EXTT7=
EXTT8=
EXTT9=
EXTT10=
EXTT11=
PLAYORDER=
